<?xml version="1.0" encoding="UTF-8"?>
<svg id="Layer_1" data-name="Layer 1" xmlns="http://www.w3.org/2000/svg" viewBox="0 0 1232.64 631.24">
  <defs>
    <style>
      .cls-1 {
        stroke-width: 5px;
      }

      .cls-1, .cls-2 {
        fill: none;
        stroke: #231f20;
        stroke-miterlimit: 10;
      }

      .cls-2 {
        stroke-width: 10px;
      }
    </style>
  </defs>
  <g>
    <path d="m342.9,590.4c-3.8.01-6.09-1.81-8-4.29-.96-1.24-1.86-2.53-2.9-3.71-2.53-2.89-5.91-2.89-8.45,0-1.16,1.32-2.15,2.79-3.27,4.16-1.56,1.92-3.39,3.39-5.98,3.73-2.72.36-5.02-.41-6.99-2.25-1.52-1.41-2.6-3.19-3.88-4.8-.98-1.24-2.04-2.41-3.66-2.8-2.14-.5-3.91.16-5.38,1.75-1.11,1.2-2,2.58-3,3.87-1.36,1.76-2.89,3.31-5.1,3.96-3.7,1.09-7.03-.13-9.71-3.54-1.05-1.34-2.06-2.7-3.12-4.03-1.1-1.38-2.54-2.1-4.3-2.23-1.04-.08-1.6-.7-1.56-1.62.04-.92.67-1.5,1.69-1.5,2.54,0,4.57,1.09,6.28,2.91,1.41,1.51,2.53,3.25,3.82,4.85,2.33,2.91,6.17,3.11,8.68.14,1.35-1.6,2.52-3.33,3.89-4.92,3.55-4.11,9.69-3.96,13.06.04,1.2,1.43,2.24,2.98,3.41,4.43,1.26,1.57,2.73,2.68,4.89,2.58,1.7-.08,2.99-.87,4.03-2.11,1.13-1.36,2.17-2.79,3.26-4.17,1.91-2.4,4.28-3.88,7.47-3.76,2.38.09,4.33,1.08,5.95,2.79,1.06,1.12,1.94,2.38,2.86,3.61.63.84,1.27,1.66,2.06,2.36,2.06,1.82,4.99,1.79,7.03-.09,1.45-1.34,2.47-3.04,3.69-4.57,1.58-1.99,3.42-3.58,6.05-4.01.52-.08,1.05-.12,1.56-.06.81.09,1.28.62,1.37,1.42.09.84-.38,1.59-1.11,1.61-3.34.05-4.97,2.38-6.65,4.71-1.11,1.54-2.25,3.05-3.86,4.13-1.4.95-2.96,1.32-4.14,1.39Z"/>
    <path d="m342.5,609.87c-2.42-.05-4.41-.88-6.06-2.53-1.33-1.32-2.34-2.9-3.48-4.36-.61-.77-1.22-1.53-2.01-2.14-1.97-1.52-4.81-1.4-6.65.27-1.56,1.42-2.63,3.24-3.94,4.87-1.94,2.41-4.31,3.97-7.53,3.88-2.98-.09-5.16-1.62-6.93-3.87-1.07-1.36-2.1-2.75-3.18-4.1-2.33-2.92-6.42-2.78-8.67.18-1.19,1.56-2.36,3.14-3.64,4.62-2.16,2.51-4.87,3.6-8.21,3.01-2.56-.45-4.31-2.05-5.83-3.99-.87-1.1-1.67-2.26-2.54-3.36-1.15-1.46-2.53-2.5-4.51-2.58-1.23-.05-1.81-.78-1.72-1.81.08-.89.87-1.45,2.02-1.39,2.89.16,5,1.67,6.75,3.84,1.31,1.63,2.37,3.46,3.94,4.87,2.01,1.81,4.9,1.84,6.95.06.97-.84,1.71-1.88,2.47-2.91.99-1.34,1.94-2.72,3.23-3.8,3.63-3.05,8.56-2.73,11.79.73.99,1.05,1.83,2.22,2.68,3.37.66.9,1.33,1.79,2.16,2.53,2.03,1.83,5,1.84,7.04.01,1.18-1.06,2.04-2.38,2.97-3.64,1.27-1.71,2.61-3.37,4.6-4.31,3.28-1.55,7.11-.8,9.71,1.87,1.42,1.46,2.51,3.18,3.76,4.77,1.42,1.8,3.12,2.94,5.55,2.6,1-.14,1.86-.55,2.61-1.22,1.34-1.18,2.3-2.67,3.36-4.07,1.5-1.98,3.15-3.77,5.68-4.42.69-.18,1.39-.35,2.12-.31.94.05,1.62.66,1.66,1.47.05.9-.44,1.63-1.42,1.66-2.59.08-4.14,1.66-5.54,3.55-1.24,1.68-2.4,3.42-4.06,4.76-1.54,1.24-3.29,1.81-5.16,1.86Z"/>
    <path d="m270.17,557.69c2.43.15,4.54,1.66,6.26,3.86,1.06,1.37,2.04,2.81,3.19,4.1,2.51,2.82,5.71,2.81,8.33.08,1.22-1.28,2.13-2.81,3.25-4.17,1.41-1.73,3.02-3.19,5.28-3.67,2.98-.64,5.63.02,7.86,2.13,1.1,1.04,1.99,2.25,2.87,3.47.67.93,1.36,1.84,2.18,2.65,2.17,2.12,5.13,2.17,7.37.1,1.13-1.05,1.98-2.34,2.9-3.57,1.26-1.68,2.57-3.3,4.55-4.22,3.12-1.46,6.86-.86,9.36,1.5,1.61,1.52,2.75,3.41,4.12,5.11,1.3,1.62,2.8,2.82,5.05,2.66,1.23-.09,2.27-.51,3.18-1.33,1.18-1.06,2.05-2.37,2.99-3.62,1.52-2.02,3.13-3.96,5.7-4.74.85-.26,1.71-.39,2.6-.33.86.06,1.46.7,1.47,1.52.01.84-.56,1.58-1.4,1.58-2.17.02-3.67,1.16-4.94,2.75-1.18,1.48-2.21,3.08-3.51,4.47-3.7,3.97-9.34,3.93-12.89-.17-1.24-1.43-2.33-2.99-3.52-4.47-.89-1.12-1.93-2.03-3.38-2.38-2.17-.52-3.9.22-5.36,1.8-1.25,1.35-2.21,2.92-3.38,4.33-1.65,1.99-3.57,3.48-6.29,3.73-2.81.26-5.12-.64-7.07-2.62-1.54-1.57-2.63-3.5-4.08-5.14-.9-1.02-1.89-1.85-3.3-2.13-1.9-.38-3.48.16-4.84,1.45-1.33,1.27-2.28,2.86-3.4,4.3-1.37,1.76-2.92,3.31-5.14,3.88-4.06,1.05-7.2-.45-9.69-3.65-1.2-1.54-2.25-3.21-3.66-4.6-.93-.91-2.04-1.38-3.31-1.52-1.4-.16-1.96-.63-1.92-1.68.04-1.02.7-1.48,2.58-1.45Z"/>
  </g>
  <polygon class="cls-1" points="1056.09 310.43 1056.09 361.31 1100.15 386.75 1144.21 361.31 1144.21 310.43 1100.15 284.99 1056.09 310.43"/>
  <polygon class="cls-2" points="1227.64 159.19 1227.64 351.19 1194.78 370.16 1140.5 338.83 1095.21 312.68 1095.21 197.7 1194.78 140.22 1227.64 159.19"/>
  <polygon class="cls-1" points="202.47 506.22 202.47 548.45 165.89 569.57 129.32 548.45 129.32 506.22 165.89 485.1 202.47 506.22"/>
  <polygon class="cls-2" points="150.41 485.36 150.41 569.31 77.7 611.29 5 569.31 5 485.36 77.7 443.39 150.41 485.36"/>
  <polygon class="cls-1" points="539.42 140.89 507.88 140.89 492.11 113.58 507.88 86.27 539.42 86.27 555.19 113.58 539.42 140.89"/>
  <polygon class="cls-2" points="527.46 113.58 464.78 113.58 433.43 59.29 464.78 5 527.46 5 558.81 59.29 527.46 113.58"/>
  <path class="cls-1" d="m112.69,87.02h0c-.25.37-.59.58-.95.58h-51.43c-.36,0-.7-.21-.95-.58h0c-.53-.77-.53-2.02,0-2.79l25.71-37.72c.53-.77,1.38-.77,1.9,0l25.71,37.72c.53.77.53,2.02,0,2.79Z"/>
  <path class="cls-1" d="m1070.58,565.24h0c-.39-.57-.92-.89-1.47-.89h-79.47c-.55,0-1.08.32-1.47.89h0c-.81,1.19-.81,3.12,0,4.32l39.73,58.29c.81,1.19,2.13,1.19,2.94,0l39.73-58.29c.81-1.19.81-3.12,0-4.32Z"/>
</svg>