<?xml version="1.0" encoding="UTF-8"?>
<svg id="Layer_1" data-name="Layer 1" xmlns="http://www.w3.org/2000/svg" viewBox="0 0 1207.15 706.89">
  <defs>
    <style>
      .cls-1 {
        fill: none;
        stroke: #231f20;
        stroke-miterlimit: 10;
        stroke-width: 6px;
      }

      .cls-2 {
        fill: #231f20;
      }
    </style>
  </defs>
  <polygon class="cls-1" points="1204.15 407.44 1204.15 703.89 1036.93 703.89 970.46 665.51 970.46 469.01 1035.07 431.71 1140.63 370.77 1204.15 407.44"/>
  <polygon class="cls-1" points="872.87 441.7 872.87 545.34 962.63 597.15 1052.38 545.34 1052.38 441.7 962.63 389.88 872.87 441.7"/>
  <path class="cls-1" d="m126.25,581.08H19.94c-9.43,0-14.15-11.4-7.48-18.06l53.16-53.15c4.13-4.13,10.83-4.13,14.96,0l53.16,53.15c6.67,6.67,1.95,18.06-7.48,18.06Z"/>
  <path class="cls-1" d="m97.74,595.15h78.24c6.94,0,10.41,8.39,5.51,13.29l-39.12,39.12c-3.04,3.04-7.97,3.04-11.01,0l-39.12-39.12c-4.91-4.91-1.43-13.29,5.51-13.29Z"/>
  <path class="cls-1" d="m67.27,43.85H8.83c-5.18,0-7.78-6.27-4.11-9.93L33.94,4.7c2.27-2.27,5.95-2.27,8.23,0l29.22,29.22c3.66,3.66,1.07,9.93-4.11,9.93Z"/>
  <path class="cls-1" d="m67.27,55.3H8.83c-5.18,0-7.78,6.27-4.11,9.93l29.22,29.22c2.27,2.27,5.95,2.27,8.23,0l29.22-29.22c3.66-3.66,1.07-9.93-4.11-9.93Z"/>
  <g>
    <g>
      <circle class="cls-2" cx="916.68" cy="56.51" r="6.94"/>
      <circle class="cls-2" cx="944.88" cy="56.51" r="6.94"/>
      <circle class="cls-2" cx="973.09" cy="56.51" r="6.94"/>
      <circle class="cls-2" cx="1001.29" cy="56.51" r="6.94"/>
    </g>
    <g>
      <circle class="cls-2" cx="916.68" cy="81.44" r="6.94"/>
      <circle class="cls-2" cx="944.88" cy="81.44" r="6.94"/>
      <circle class="cls-2" cx="973.09" cy="81.44" r="6.94"/>
      <circle class="cls-2" cx="1001.29" cy="81.44" r="6.94"/>
    </g>
    <g>
      <circle class="cls-2" cx="916.68" cy="106.36" r="6.94"/>
      <circle class="cls-2" cx="944.88" cy="106.36" r="6.94"/>
      <circle class="cls-2" cx="973.09" cy="106.36" r="6.94"/>
      <circle class="cls-2" cx="1001.29" cy="106.36" r="6.94"/>
    </g>
    <g>
      <g>
        <circle class="cls-2" cx="916.68" cy="131.29" r="6.94"/>
        <circle class="cls-2" cx="944.88" cy="131.29" r="6.94"/>
        <circle class="cls-2" cx="973.09" cy="131.29" r="6.94"/>
        <circle class="cls-2" cx="1001.29" cy="131.29" r="6.94"/>
      </g>
      <g>
        <circle class="cls-2" cx="916.68" cy="156.22" r="6.94"/>
        <circle class="cls-2" cx="944.88" cy="156.22" r="6.94"/>
        <circle class="cls-2" cx="973.09" cy="156.22" r="6.94"/>
        <circle class="cls-2" cx="1001.29" cy="156.22" r="6.94"/>
      </g>
      <g>
        <circle class="cls-2" cx="916.68" cy="181.14" r="6.94"/>
        <circle class="cls-2" cx="944.88" cy="181.14" r="6.94"/>
        <circle class="cls-2" cx="973.09" cy="181.14" r="6.94"/>
        <circle class="cls-2" cx="1001.29" cy="181.14" r="6.94"/>
      </g>
    </g>
  </g>
</svg>