<?xml version="1.0" encoding="UTF-8"?>
<svg id="Layer_1" data-name="Layer 1" xmlns="http://www.w3.org/2000/svg" viewBox="0 0 435.65 162.17">
  <defs>
    <style>
      .cls-1 {
        fill: #207d54;
      }
    </style>
  </defs>
  <path class="cls-1" d="m107.89,0H13.37C5.99,0,0,5.99,0,13.37v135.43c0,7.38,5.99,13.37,13.37,13.37h94.52c7.38,0,13.37-5.99,13.37-13.37V13.37c0-7.38-5.99-13.37-13.37-13.37Zm-32.05,128.79l-18.74-36.56-14.19,14.87v21.69H15.43V39.89h27.47v33.6l28.78-33.6h36.54l-32.44,33.56,33.9,55.35h-33.83Z"/>
  <g>
    <path class="cls-1" d="m185.26,127.62h-18.55v-8.4c-2.77,3.45-5.56,5.91-8.37,7.37-2.82,1.46-6.27,2.2-10.38,2.2-5.47,0-9.76-1.64-12.87-4.91-3.11-3.27-4.66-8.31-4.66-15.11v-33.01h19.97v28.52c0,3.26.6,5.57,1.81,6.93,1.2,1.37,2.9,2.05,5.08,2.05,2.38,0,4.32-.91,5.83-2.73,1.51-1.82,2.27-5.09,2.27-9.81v-24.95h19.87v51.86Z"/>
    <path class="cls-1" d="m232.09,56.03h22.12v27.05l23.17-27.05h29.42l-26.12,27.02,27.29,44.56h-27.24l-15.09-29.44-11.43,11.97v17.47h-22.12V56.03Z"/>
    <path class="cls-1" d="m366.02,127.62h-18.55v-8.4c-2.77,3.45-5.56,5.91-8.37,7.37-2.82,1.46-6.27,2.2-10.38,2.2-5.47,0-9.76-1.64-12.87-4.91-3.11-3.27-4.66-8.31-4.66-15.11v-33.01h19.97v28.52c0,3.26.6,5.57,1.81,6.93,1.2,1.37,2.9,2.05,5.08,2.05,2.38,0,4.32-.91,5.83-2.73,1.51-1.82,2.27-5.09,2.27-9.81v-24.95h19.87v51.86Z"/>
    <path class="cls-1" d="m435.65,106.62h-39.84c.36,3.19,1.22,5.57,2.59,7.13,1.92,2.25,4.43,3.37,7.52,3.37,1.95,0,3.81-.49,5.57-1.46,1.07-.62,2.23-1.71,3.47-3.27l19.58,1.81c-3,5.21-6.61,8.94-10.84,11.21-4.23,2.26-10.3,3.39-18.21,3.39-6.87,0-12.27-.97-16.21-2.91-3.94-1.94-7.2-5.01-9.79-9.23-2.59-4.21-3.88-9.17-3.88-14.87,0-8.11,2.6-14.66,7.79-19.68,5.19-5.01,12.36-7.52,21.51-7.52,7.42,0,13.28,1.12,17.58,3.37s7.57,5.5,9.81,9.77c2.25,4.26,3.37,9.81,3.37,16.65v2.25Zm-20.21-9.52c-.39-3.84-1.42-6.59-3.1-8.25-1.68-1.66-3.88-2.49-6.62-2.49-3.16,0-5.68,1.25-7.57,3.76-1.21,1.56-1.97,3.89-2.29,6.98h19.58Z"/>
  </g>
</svg>